<?xml version="1.0" encoding="UTF-8"?>
<svg xmlns="http://www.w3.org/2000/svg" xmlns:xlink="http://www.w3.org/1999/xlink" width="75px" height="16px" viewBox="0 0 76 16" version="1.1">
<g id="surface1">
<path style=" stroke:none;fill-rule:evenodd;fill:rgb(9.019608%,9.019608%,9.019608%);fill-opacity:1;" d="M 73.011719 10.660156 C 73.492188 10.660156 73.9375 10.503906 74.226562 10.234375 L 74.4375 10.042969 L 75.066406 11.359375 L 74.945312 11.464844 C 74.453125 11.921875 73.691406 12.183594 72.875 12.183594 C 71.03125 12.183594 69.976562 11.109375 69.976562 9.234375 L 69.976562 3.777344 L 69.972656 2.273438 L 69.972656 0.222656 L 71.636719 0.222656 L 71.636719 2.273438 L 74.425781 2.273438 L 74.425781 3.777344 L 71.636719 3.777344 L 71.636719 9.164062 C 71.636719 10.160156 72.097656 10.664062 73.011719 10.660156 Z M 65.632812 6.625 C 65.632812 4.792969 64.753906 3.828125 63.082031 3.828125 C 61.195312 3.828125 60.070312 5.019531 60.070312 7.019531 L 60.070312 12.1875 L 58.402344 12.1875 L 58.398438 2.316406 L 60.015625 2.316406 L 60.015625 3.605469 C 60.773438 2.726562 61.917969 2.246094 63.304688 2.246094 C 65.808594 2.246094 67.304688 3.835938 67.304688 6.496094 L 67.304688 12.183594 L 65.632812 12.1875 Z M 53.578125 2.316406 L 55.242188 2.316406 L 55.242188 12.1875 L 53.578125 12.1875 Z M 43.933594 14.085938 C 40.113281 14.085938 37.28125 11.246094 37.28125 7.277344 C 37.28125 3.316406 40.105469 0.5 43.929688 0.496094 C 47.75 0.496094 50.554688 3.316406 50.554688 7.277344 C 50.554688 11.242188 47.753906 14.085938 43.933594 14.085938 Z M 47.832031 9.460938 L 47.832031 5.121094 C 47.832031 4.621094 47.433594 4.214844 46.949219 4.214844 L 40.886719 4.214844 C 40.398438 4.214844 40 4.621094 40 5.121094 L 40.007812 9.496094 C 40.007812 9.980469 40.382812 10.371094 40.859375 10.371094 L 46.949219 10.371094 C 47.4375 10.371094 47.832031 9.964844 47.832031 9.460938 Z M 29.941406 12.269531 C 28.601562 12.269531 27.457031 11.765625 26.648438 10.835938 L 26.652344 15.660156 L 24.980469 15.660156 L 24.980469 2.3125 L 26.59375 2.3125 L 26.59375 3.726562 C 27.398438 2.765625 28.5625 2.242188 29.9375 2.242188 C 32.71875 2.242188 34.738281 4.347656 34.738281 7.246094 C 34.738281 10.160156 32.722656 12.269531 29.941406 12.269531 Z M 29.851562 3.789062 C 27.953125 3.789062 26.632812 5.210938 26.632812 7.246094 C 26.632812 9.285156 27.953125 10.707031 29.851562 10.707031 C 31.746094 10.707031 33.074219 9.285156 33.074219 7.246094 C 33.074219 5.242188 31.71875 3.789062 29.851562 3.789062 Z M 20.46875 6.621094 C 20.46875 4.792969 19.585938 3.828125 17.914062 3.828125 C 16.027344 3.828125 14.902344 5.019531 14.902344 7.015625 L 14.902344 12.183594 L 13.234375 12.183594 L 13.234375 2.3125 L 14.847656 2.3125 L 14.847656 3.601562 C 15.605469 2.722656 16.75 2.242188 18.136719 2.242188 C 20.640625 2.242188 22.136719 3.832031 22.136719 6.496094 L 22.136719 12.183594 L 20.46875 12.183594 Z M 4.425781 12.109375 C 2.761719 11.726562 1.449219 10.382812 1.078125 8.683594 C 0.171875 4.582031 3.1875 1.496094 7.207031 2.402344 C 8.871094 2.777344 10.191406 4.125 10.554688 5.832031 C 11.4375 9.941406 8.425781 13.035156 4.425781 12.109375 Z M 5.824219 3.789062 C 3.925781 3.792969 2.601562 5.210938 2.601562 7.25 C 2.601562 9.289062 3.925781 10.710938 5.824219 10.707031 C 7.710938 10.707031 9.027344 9.285156 9.027344 7.25 C 9.027344 5.210938 7.710938 3.789062 5.824219 3.789062 Z M 5.824219 3.789062 "/>
</g>
</svg>
